<svg width="20" height="15" viewBox="0 0 20 15" fill="none" xmlns="http://www.w3.org/2000/svg">
<path fill-rule="evenodd" clip-rule="evenodd" d="M0 1.07143C0 0.479695 0.497461 0 1.11111 0H18.8889C19.5025 0 20 0.479695 20 1.07143C20 1.66316 19.5025 2.14286 18.8889 2.14286H1.11111C0.497461 2.14286 0 1.66316 0 1.07143Z" fill="black"/>
<path fill-rule="evenodd" clip-rule="evenodd" d="M0 7.5C0 6.90827 0.497461 6.42857 1.11111 6.42857H18.8889C19.5025 6.42857 20 6.90827 20 7.5C20 8.09173 19.5025 8.57143 18.8889 8.57143H1.11111C0.497461 8.57143 0 8.09173 0 7.5Z" fill="black"/>
<path fill-rule="evenodd" clip-rule="evenodd" d="M0 13.9286C0 13.3368 0.497461 12.8571 1.11111 12.8571H18.8889C19.5025 12.8571 20 13.3368 20 13.9286C20 14.5203 19.5025 15 18.8889 15H1.11111C0.497461 15 0 14.5203 0 13.9286Z" fill="black"/>
</svg>
