<svg width="20" height="15" viewBox="0 0 20 15" fill="none" xmlns="http://www.w3.org/2000/svg">
<path fill-rule="evenodd" clip-rule="evenodd" d="M0.17808 5.43043C0.364895 5.16085 0.672026 5.00002 1.00001 5.00002H19C19.328 5.00002 19.6351 5.16085 19.8219 5.43043C20.0087 5.7 20.0515 6.04405 19.9363 6.35114L16.9363 14.3511C16.79 14.7414 16.4168 15 16 15H4C3.58316 15 3.21004 14.7414 3.06367 14.3511L0.0636765 6.35114C-0.0514847 6.04405 -0.00873528 5.7 0.17808 5.43043ZM2.443 7.00002L4.693 13H15.307L17.557 7.00002H2.443Z" fill="black"/>
<path fill-rule="evenodd" clip-rule="evenodd" d="M8.6247 0.219167C9.05596 0.564176 9.12588 1.19347 8.78087 1.62473L4.78087 6.62471C4.43586 7.05598 3.80657 7.1259 3.37531 6.78089C2.94405 6.43588 2.87413 5.80659 3.21914 5.37533L7.21913 0.375341C7.56414 -0.05592 8.19343 -0.125841 8.6247 0.219167Z" fill="black"/>
<path fill-rule="evenodd" clip-rule="evenodd" d="M11.3753 0.219167C10.944 0.564176 10.8741 1.19347 11.2191 1.62473L15.2191 6.62471C15.5641 7.05598 16.1934 7.1259 16.6247 6.78089C17.056 6.43588 17.1259 5.80659 16.7809 5.37533L12.7809 0.375341C12.4359 -0.05592 11.8066 -0.125841 11.3753 0.219167Z" fill="black"/>
<path fill-rule="evenodd" clip-rule="evenodd" d="M6 8.00002C6.55229 8.00002 7 8.44773 7 9.00001V11C7 11.5523 6.55229 12 6 12C5.44772 12 5 11.5523 5 11V9.00001C5 8.44773 5.44772 8.00002 6 8.00002Z" fill="black"/>
<path fill-rule="evenodd" clip-rule="evenodd" d="M14 8.00002C14.5523 8.00002 15 8.44773 15 9.00001V11C15 11.5523 14.5523 12 14 12C13.4477 12 13 11.5523 13 11V9.00001C13 8.44773 13.4477 8.00002 14 8.00002Z" fill="black"/>
<path fill-rule="evenodd" clip-rule="evenodd" d="M10 8.00002C10.5523 8.00002 11 8.44773 11 9.00001V11C11 11.5523 10.5523 12 10 12C9.44772 12 9 11.5523 9 11V9.00001C9 8.44773 9.44772 8.00002 10 8.00002Z" fill="black"/>
</svg>
