<svg width="20" height="19" viewBox="0 0 20 19" fill="none" xmlns="http://www.w3.org/2000/svg">
<path fill-rule="evenodd" clip-rule="evenodd" d="M9.38611 0.210648C9.74722 -0.0702159 10.2529 -0.0702159 10.614 0.210648L19.614 7.21065C20.0499 7.54972 20.1285 8.17799 19.7894 8.61394C19.4503 9.04989 18.8221 9.12842 18.3861 8.78935L18 8.48905V17C18 18.1046 17.1046 19 16 19H4C2.89543 19 2 18.1046 2 17V8.48912L1.61399 8.78935C1.17804 9.12842 0.549764 9.04989 0.210694 8.61394C-0.128376 8.17799 -0.0498418 7.54972 0.386105 7.21065L9.38611 0.210648ZM9 12C8.44772 12 8 12.4477 8 13V19H12V13C12 12.4477 11.5523 12 11 12H9Z" fill="white"/>
</svg>
